<?xml version="1.0" encoding="iso-8859-1"?>
<!-- Generator: Adobe Illustrator 19.0.0, SVG Export Plug-In . SVG Version: 6.00 Build 0)  -->
<svg version="1.1" id="Capa_1" xmlns="http://www.w3.org/2000/svg" xmlns:xlink="http://www.w3.org/1999/xlink" x="0px" y="0px"
	 viewBox="0 0 512 512" style="enable-background:new 0 0 512 512;" xml:space="preserve">
<g>
	<g>
		<path d="M451,0H61C36.187,0,16,20.187,16,45v422c0,24.813,20.187,45,45,45h330c19.969,0,36.931-13.078,42.798-31.115
			C469.075,474.792,496,443.991,496,407V167V45C496,20.187,475.813,0,451,0z M76,482H61c-8.271,0-15-6.729-15-15V45
			c0-8.271,6.729-15,15-15h15V482z M466,407c0,19.555-12.541,36.228-30,42.42V392h30V407z M466,362h-30v-30h30V362z M466,302h-30
			v-30h30V302z M466,242h-30v-15c0-19.555,12.541-36.228,30-42.42V242z M466,153.507c-34.19,6.969-60,37.274-60,73.493v240
			c0,8.271-6.729,15-15,15H106V30h345c8.271,0,15,6.729,15,15V153.507z"/>
	</g>
</g>
<g>
	<g>
		<path d="M373.581,316.623l-42.425-42.426c-5.856-5.858-15.354-5.858-21.213,0l-21.214,21.213l-56.14-56.14l21.213-21.213
			c5.858-5.858,5.858-15.355,0-21.213l-42.426-42.427c-5.853-5.854-15.357-5.857-21.213,0l-31.82,31.82
			c-29.243,29.242-29.243,76.824,0,106.066l77.354,77.353c29.309,29.311,76.751,29.315,106.065,0l31.819-31.82
			C379.439,331.978,379.439,322.481,373.581,316.623z M320.55,348.443c-17.587,17.586-46.051,17.59-63.64,0l-77.354-77.353
			c-17.545-17.546-17.545-46.094,0-63.64l21.214-21.213l21.213,21.213l-21.213,21.213c-5.858,5.858-5.858,15.355,0,21.213
			l77.353,77.353c5.856,5.857,15.354,5.858,21.213,0l21.214-21.213l21.213,21.213L320.55,348.443z"/>
	</g>
</g>
<g>
</g>
<g>
</g>
<g>
</g>
<g>
</g>
<g>
</g>
<g>
</g>
<g>
</g>
<g>
</g>
<g>
</g>
<g>
</g>
<g>
</g>
<g>
</g>
<g>
</g>
<g>
</g>
<g>
</g>
</svg>
